<?xml version="1.0" standalone="no"?>
<!DOCTYPE svg PUBLIC "-//W3C//DTD SVG 20010904//EN"
 "http://www.w3.org/TR/2001/REC-SVG-20010904/DTD/svg10.dtd">
<svg version="1.0" xmlns="http://www.w3.org/2000/svg"
 width="1011.000000pt" height="1011.000000pt" viewBox="0 0 1011.000000 1011.000000"
 preserveAspectRatio="xMidYMid meet">
<metadata>
Created by potrace 1.14, written by Peter Selinger 2001-2017
</metadata>
<g transform="translate(0.000000,1011.000000) scale(0.100000,-0.100000)"
fill="#000000" stroke="none">
<path d="M4779 10096 c-2 -2 -53 -7 -113 -11 -59 -4 -118 -8 -130 -10 -27 -4
-97 -13 -161 -20 -27 -4 -75 -10 -105 -15 -30 -5 -71 -12 -90 -15 -187 -31
-536 -119 -695 -175 -33 -12 -67 -23 -75 -25 -24 -6 -198 -72 -280 -106 -364
-152 -748 -368 -1050 -593 -80 -59 -283 -219 -300 -236 -3 -3 -45 -41 -94 -85
-216 -193 -414 -405 -595 -635 -45 -58 -89 -113 -97 -123 -8 -9 -14 -21 -14
-26 0 -5 -4 -11 -8 -13 -22 -8 -253 -366 -328 -507 -41 -78 -164 -316 -164
-318 -1 -3 -30 -72 -64 -148 -61 -135 -203 -536 -220 -618 -3 -12 -12 -49 -21
-82 -9 -33 -18 -67 -20 -75 -2 -8 -14 -64 -28 -125 -30 -133 -67 -349 -83
-490 -3 -33 -8 -67 -9 -75 -27 -144 -27 -853 0 -1040 2 -14 7 -52 11 -85 3
-33 8 -67 9 -75 2 -8 6 -40 10 -70 4 -30 9 -64 11 -75 10 -54 25 -133 29 -160
3 -16 9 -48 15 -70 5 -22 23 -97 39 -166 88 -366 251 -793 432 -1129 132 -245
135 -251 285 -475 84 -126 222 -311 285 -383 13 -15 34 -40 46 -55 43 -55 169
-192 278 -301 288 -290 556 -501 945 -748 160 -101 433 -242 650 -335 169 -72
479 -183 583 -209 9 -2 25 -6 35 -9 34 -9 257 -65 282 -71 45 -9 234 -44 270
-50 110 -17 160 -24 200 -29 25 -3 63 -7 85 -10 225 -27 818 -27 1040 -1 17 2
55 7 86 10 31 4 66 8 76 10 11 3 44 7 74 11 30 4 77 11 104 16 28 6 68 12 90
16 31 4 200 42 345 78 134 33 402 122 584 195 773 309 1493 833 2006 1460 25
30 51 61 58 69 30 31 214 284 274 376 76 115 168 265 168 271 0 2 11 22 24 43
28 44 160 304 205 403 97 214 202 508 267 748 44 163 37 133 73 315 33 164 35
175 50 285 9 66 14 100 26 200 27 213 27 818 0 1040 -2 19 -7 55 -10 80 -3 25
-8 63 -10 85 -6 47 -16 112 -21 140 -2 11 -11 61 -20 110 -37 208 -120 520
-195 731 -337 956 -958 1797 -1773 2398 -529 391 -1113 668 -1751 831 -146 37
-215 52 -420 90 -16 3 -50 8 -75 11 -25 3 -72 9 -105 14 -33 5 -94 12 -135 15
-41 4 -91 9 -110 12 -40 6 -675 14 -681 9z"/>
</g>
</svg>
